PathFileType	4	(X/Y/Z)	RBDS05\RBDS05runT35.trc
DataRate	CameraRate	NumFrames	NumMarkers	Units	OrigDataRate	OrigDataStartFrame	OrigNumFrames
150.000000	150.000000	6	33	mm	150.000000	1125	4500
Frame#	Time	L.ASIS			L.Heel.Bottom			L.Heel.Lateral			L.Heel.Top			L.Iliac.Crest			L.MT1			L.MT5			L.PSIS			L.Shank.Bottom.Lateral			L.Shank.Bottom.Medial			L.Shank.Top.Lateral			L.Shank.Top.Medial			L.Thigh.Bottom.Lateral			L.Thigh.Bottom.Medial			L.Thigh.Top.Lateral			L.Thigh.Top.Medial			R.ASIS			R.ASY			R.Heel.Bottom			R.Heel.Lateral			R.Heel.Top			R.Iliac.Crest			R.MT1			R.MT5			R.PSIS			R.Shank.Bottom.Lateral			R.Shank.Bottom.Medial			R.Shank.Top.Lateral			R.Shank.Top.Medial			R.Thigh.Bottom.Lateral			R.Thigh.Bottom.Medial			R.Thigh.Top.Lateral			R.Thigh.Top.Medial			
		X1	Y1	Z1	X2	Y2	Z2	X3	Y3	Z3	X4	Y4	Z4	X5	Y5	Z5	X6	Y6	Z6	X7	Y7	Z7	X8	Y8	Z8	X9	Y9	Z9	X10	Y10	Z10	X11	Y11	Z11	X12	Y12	Z12	X13	Y13	Z13	X14	Y14	Z14	X15	Y15	Z15	X16	Y16	Z16	X17	Y17	Z17	X18	Y18	Z18	X19	Y19	Z19	X20	Y20	Z20	X21	Y21	Z21	X22	Y22	Z22	X23	Y23	Z23	X24	Y24	Z24	X25	Y25	Z25	X26	Y26	Z26	X27	Y27	Z27	X28	Y28	Z28	X29	Y29	Z29	X30	Y30	Z30	X31	Y31	Z31	X32	Y32	Z32	X33	Y33	Z33	

1126	7.500000000000001	2268.222540160699	918.3417046531088	948.7796064399922	1911.175782760731	318.5721316935909	1013.771668322007	1947.149853132569	303.4260884937298	974.1190456462529	1958.726176859067	331.6845497660919	1022.473156202439	2207.452887122216	986.3819060905685	904.2129992195289	2020.074654692023	145.4746071652372	1046.111680892898	2011.089301484903	173.6963687622643	945.0079126125021	2113.440024490607	966.8774265024132	1000.349401500571	2068.575184608701	329.2287604271476	960.9311607691326	2048.213525944986	362.5388083369709	994.1997230870545	2133.16345637351	376.6459768791015	949.2198898775989	2116.09632334729	412.1467926764748	984.6439058569871	2311.455341084112	585.9339551887722	913.8456797307723	2254.94253284835	555.0502822140068	948.3750286398517	2250.55184140557	677.4225042263756	901.6738084030685	2198.021130010588	649.4378101410875	935.8180082874485	2256.771885508797	932.7487073406066	1173.374610856103	2051.554430745282	88.62721990927304	1101.430816798458	1874.325321003658	49.9681440736364	1096.639814613183	1903.45301725851	58.37576194562341	1135.399364881129	1890.068522007276	95.7465597361978	1099.603626442128	2207.298155125347	978.7936940457569	1198.431175782525	2076.07288612734	44.31121763241911	1051.510774902081	2054.519883479167	38.88409616910895	1156.138762029587	2112.887954648087	975.9223263268001	1090.668939723432	1992.172023411103	180.0657936316427	1156.768849020882	1953.368012596858	202.4382607402555	1125.274878995896	2020.159708159299	254.5385303305224	1173.125339641882	1981.811153216859	275.677434177606	1141.198079858	2167.28802968375	549.4004283814336	1205.833776553737	2098.438045167611	547.6645580526047	1178.895872151725	2156.734622637101	659.0165242173827	1219.570762207783	2091.317605345934	657.0203509458106	1193.474780032874	
1127	7.506666666666667	2269.035208502907	923.8817902962091	949.3709778986248	1928.7762688082	300.2601642590018	1015.035026898113	1965.582873011049	288.5398397922398	975.2044091966557	1975.179008871081	316.6025635586724	1024.029022966476	2207.955433894928	991.7665345910953	904.3917656734932	2049.252538395817	134.6338216327481	1043.92044655443	2038.330871031309	164.36557599236	943.5140804694074	2114.032067256508	971.7877888724375	1000.161590008775	2085.4953597434	322.1382348682575	962.1382356133568	2063.135822992083	353.7636461458017	995.8238096907139	2147.190377359054	373.4909809282853	950.9937029921302	2127.959500288428	407.5160377993642	986.8803248682117	2318.357837693499	594.1370904432159	915.7152253038835	2262.214424981051	561.9970596471032	949.5919895401375	2255.483139650934	684.0455754822661	902.272526136197	2203.085328636523	654.8923283249615	935.6451414236827	2256.647973509172	934.5233218781351	1173.792792757775	2030.888677166681	88.66124773096243	1102.067151950186	1852.755840280381	57.53781446341389	1096.905014857326	1882.256696842175	64.40803564433305	1135.642982882172	1870.382122689695	102.5464311287454	1100.047716412482	2209.562869838314	981.6589402591662	1198.173021830392	2053.052166139821	43.73500262082484	1051.762071924483	2030.95575782773	39.04289370811993	1156.001669382305	2113.674450510771	979.7792079345728	1091.070508200775	1972.642981375036	185.6784587932481	1157.234621342004	1934.49533789626	208.0153334172766	1125.022536748194	2001.124443582506	260.0701161793506	1173.198485440522	1963.30602336527	281.1809541528304	1140.686139840901	2154.374657438683	552.7438149610017	1205.511080093028	2085.707469700279	553.5795839883667	1178.12068406988	2147.844049604912	662.6497570381981	1219.253203801541	2082.66669314737	663.1420781097301	1192.453117249118	
1128	7.513333333333334	2270.019578237618	929.5367042064662	950.0706382660047	1947.42814667938	281.2392109354474	1016.354088287627	1984.819845421967	273.0050078499227	976.3186610364767	1992.448123496318	300.8800072102307	1025.545486037825	2208.577810164255	997.254598596686	904.612079344723	2079.466267295739	124.2738832594615	1042.308544851584	2066.35039266923	155.0646982394732	942.5205796229433	2114.810175080801	976.8154008388809	1000.007212231299	2102.744929417794	314.5346882587398	963.3401796533892	2078.365482771135	344.4118426599102	997.2564605238391	2161.139158225062	369.7705148189509	952.542994740313	2139.709497534734	402.2596473156288	988.7024212464698	2324.58846861487	602.3523831282695	917.4339983680501	2268.666846914156	569.0793292288542	950.4359764077343	2260.090390473379	690.8721163926454	902.8322139242662	2207.74212927492	660.6752454164948	935.3313098968115	2256.660673919841	936.5070121086826	1174.258351017317	2010.863339349243	88.77867574559723	1102.676425176451	1832.070155751949	66.44113817845074	1097.220525587494	1861.959627947781	71.56548362727668	1135.894394437661	1851.831099660274	110.4498467063888	1100.483903761606	2211.791426432514	984.6729267636035	1197.93600584547	2030.469509601187	43.23931618225517	1051.959974212344	2007.762074678395	39.48401317882711	1155.897916116366	2114.570046742955	983.6944061844272	1091.488755833274	1954.04086488181	192.0326053370851	1157.690528291401	1916.600330936486	214.2230478840586	1124.649075277469	1982.90332651472	266.4090387731894	1173.163736486202	1945.67897842104	287.3658178431866	1139.95877907483	2141.943856552669	556.842495301842	1205.072133329558	2073.630342997804	560.2138027196796	1177.095322986548	2139.36967228118	666.866196943296	1218.920461290291	2074.599068310061	669.8064251413612	1191.273968415582	
1129	7.52	2271.109171756842	935.1856696682645	950.8622351735947	1967.227579286977	261.6992668335233	1017.557466238999	2004.997784961154	256.9199311638516	977.3285316603091	2010.626550357371	284.6765112061183	1026.865580092321	2209.229528307272	1002.812009742587	904.8752850570352	2110.608494633972	114.5990396135588	1041.418338863507	2095.197772949349	145.820059369463	942.1108155144478	2115.757840592369	981.9087158778397	999.9081220895368	2120.426932550663	306.4592546526636	964.4622107276846	2094.011830510866	334.5354417395326	998.3978283123442	2175.125834421178	365.4531711021651	953.7905462104318	2151.464231206549	396.3518887008471	990.0043351492961	2330.11890540492	610.4046282240655	918.9886678382687	2274.276667014693	576.1095194024814	950.9086903393174	2264.316517437964	697.7557026714851	903.3897150794184	2211.944365250103	666.6294176839198	934.9306685630438	2256.81397217159	938.6613898023603	1174.75313068843	1991.532140257132	89.06992696578769	1103.265100484607	1812.412707795899	76.64338623261732	1097.593852538241	1842.673494455748	79.83204075638128	1136.16536966218	1834.518335675205	119.4032327115837	1100.92473262688	2213.93776012092	987.8419414410033	1197.716647949007	2008.392200111428	42.90125945340367	1052.110737418006	1985.041913954406	40.260755735543	1155.854903675994	2115.568518115393	987.6411765861511	1091.938046126636	1936.455035501645	199.0172136002083	1158.143643256582	1899.7671651174	220.9697953880455	1124.175464758664	1965.60494743474	273.4339794411165	1173.030787021991	1929.043984694857	294.1287580824681	1139.037432074496	2130.09739795804	561.6007363876535	1204.539685518231	2062.30315185909	567.4429401796497	1175.845514060314	2131.371721303477	671.5884717202516	1218.58255855216	2067.175740107472	676.9058335425358	1189.95330138496	
1130	7.526666666666667	2272.23667067917	940.7176089366811	951.7269374723026	1988.25519371675	241.8488790306264	1018.518534974457	2026.238286959019	240.4121132226591	978.1379027752489	2029.791220351633	268.1612545595073	1027.868404991145	2209.849412260603	1008.402191055405	905.1820138748006	2142.539347996887	105.7935166115168	1041.343162335898	2124.891495256925	136.6894805112573	942.3346103356694	2116.853449930299	987.0157123148554	999.8850120429328	2138.617078269772	297.9853832738222	965.4398208963411	2110.16122839517	324.209333533591	999.1781652007651	2189.247460826668	360.5458453417874	954.6779316712634	2163.326769586418	389.7966418851982	990.7192432998664	2334.907507844172	618.1258798194007	920.362643584662	2279.016244444411	582.9130426790045	951.0292844833406	2268.090544115682	704.5470249844034	903.9704226076834	2215.634272181939	672.5998895427587	934.4981566409792	2257.10892823737	940.942363088666	1175.261379785727	1972.932467514571	89.64034442250686	1103.838034064619	1793.909604474651	88.06975245687255	1098.014479854545	1824.484043831792	89.16207895159548	1136.455320676226	1818.516198218214	129.3224463228605	1101.372693521298	2215.975488994172	991.158853739861	1197.51611995137	1986.872074504421	42.81589738911163	1052.227095016225	1962.884188253525	41.42756582956743	1155.890519285026	2116.664847345573	991.5967448207751	1092.434012018246	1919.949367757291	206.5018926330593	1158.593100849787	1884.047475839742	228.1514504815019	1123.62755802947	1949.319131377366	280.9988183957278	1172.813145473465	1913.487993081892	301.3507086007502	1137.957771016454	2118.928321927411	566.8935759772105	1203.938366883164	2051.8040899435	575.1145937305383	1174.407482266032	2123.900469524059	676.7141800916153	1218.247748109127	2060.439232645826	684.3096891396564	1188.513346453598	
1131	7.533333333333334	2273.338571983538	946.0321506760162	952.6443340450761	2010.569253809854	221.9111965978048	1019.166481141137	2048.634504608962	223.6402755388136	978.695029839096	2049.99628941786	251.5098711470245	1028.480270362696	2210.406552084344	1013.975222410435	905.5304607594053	2175.091452199214	98.02454470406317	1042.115191991785	2155.408534123739	127.7734071927864	943.1999421327922	2118.069058398951	992.0798874066659	999.9533506937845	2157.351714669775	289.2184906059256	966.224056444991	2126.868527560912	313.532136649643	999.5644329052014	2203.568597276535	355.0939073992033	955.1708729247561	2175.376417208518	382.6288778582033	990.8264795433364	2338.903007831102	625.3581107204869	921.5346387517973	2282.854547120168	589.3325309086642	950.8308767057812	2271.334247558076	711.0963658674768	904.5823037950368	2218.748035473739	678.4377100108253	934.0817568311104	2257.542197855119	943.3035839012196	1175.769691322284	1955.077627587937	90.60228428054113	1104.398532786917	1776.660542548285	100.6089095046264	1098.446724875694	1807.443721805354	99.48387599886058	1136.744718245112	1803.86003438928	140.0981764192084	1101.813937446074	2217.895159364323	994.5995672165286	1197.339070358268	1965.94437858045	43.09448890745583	1052.328741251892	1941.351953620751	43.04188474227178	1156.010259123042	2117.852791953153	995.5383489153597	1092.989003485146	1904.557364831948	214.3498158709994	1159.027729358817	1869.457964518589	235.6637894599844	1123.031410387008	1934.112995730845	288.945665228092	1172.525784813722	1899.06815599964	308.9088892243033	1136.765168593883	2108.524268809032	572.5728515958326	1203.293753181388	2042.195568119777	583.0545484387326	1172.829605658361	2117.000530640385	682.1202820908494	1217.9238975004	2054.415713265105	691.8691860105589	1186.987275513261	
